<svg width="102" height="102" viewBox="0 0 102 102" fill="none" xmlns="http://www.w3.org/2000/svg">
<circle cx="51" cy="51" r="51" fill="white"/>
<path d="M20.0855 27.2777C20.0962 27.2826 20.0961 27.2875 20.1185 27.2875L20.1398 27.2978C20.1738 27.3131 20.1845 27.3185 20.1845 27.3131L53.5348 41.9626L61.3923 45.4131C61.3824 45.4193 61.3752 45.4262 61.371 45.4337L61.3049 45.4946L47.6638 59.604L47.1454 59.0895L44.7288 56.7109L41.3627 53.3949C41.352 53.389 41.3443 53.3821 41.3403 53.3747V53.3693L16.2339 28.6243C15.9936 28.3881 15.9364 28.1206 16.0719 27.867C16.2075 27.6138 16.5275 27.3893 16.9786 27.2315C17.4296 27.0738 17.9843 26.9922 18.5498 27.0007C19.1153 27.0093 19.6575 27.1069 20.0855 27.2777Z" fill="url(#paint0_linear_59_8)"/>
<g style="mix-blend-mode:multiply" opacity="0.2">
<g style="mix-blend-mode:multiply" opacity="0.2">
<path d="M36.7608 74.0227V74.0176C36.7712 74.0227 36.7816 74.0227 36.7929 74.0274C36.787 74.0277 36.7812 74.0275 36.7756 74.0267C36.77 74.0259 36.765 74.0245 36.7608 74.0227Z" fill="black"/>
</g>
</g>
<g style="mix-blend-mode:multiply" opacity="0.2">
<g style="mix-blend-mode:multiply" opacity="0.2">
<path d="M61.3924 45.4114C61.3924 45.4114 61.0284 45.8752 60.3662 46.68C59.671 47.4866 58.7448 48.636 57.5302 50.0059C56.3379 51.3763 54.9146 52.9706 53.3476 54.6663C51.7805 56.362 50.0591 58.1656 48.3377 59.9689C47.4542 60.8651 46.5823 61.7613 45.7105 62.6428C44.8609 63.5242 43.9629 64.385 43.1289 65.2252C41.4395 66.8958 39.8278 68.4494 38.4054 69.7741C37.7093 70.4413 37.0462 71.0422 36.452 71.5822C36.1607 71.847 35.8772 72.1016 35.6461 72.3261C35.4405 72.5276 35.3567 72.751 35.4034 72.9727C35.4667 73.2941 35.771 73.5952 36.2636 73.8241C36.305 73.8442 36.3495 73.863 36.3966 73.8801C36.4297 73.8958 36.4733 73.9111 36.5064 73.9249C36.5361 73.9398 36.5686 73.9535 36.6034 73.9657C35.979 73.7873 35.5183 73.5092 35.3087 73.1843C35.099 72.8594 35.1553 72.5103 35.4665 72.2033L47.661 59.6014L47.1426 59.087C48.7203 57.4738 50.2989 55.8628 51.833 54.3549C53.5214 52.6843 55.1437 51.1307 56.5564 49.8016C57.969 48.4725 59.1934 47.3818 60.0322 46.6128C60.673 46.0374 61.1138 45.6502 61.3021 45.4925L61.3682 45.4316C61.3734 45.4242 61.3817 45.4174 61.3924 45.4114Z" fill="black"/>
</g>
</g>
<path d="M61.3924 45.411L74.051 50.9676C74.061 50.9715 74.0721 50.9749 74.084 50.9775C74.084 50.9775 74.0733 50.9829 74.084 50.9829L84.1813 55.4143C84.3293 55.4784 84.4693 55.5463 84.6008 55.6177C85.1124 55.8965 85.4937 56.2211 85.7203 56.5712C85.947 56.9213 86.0143 57.2892 85.9179 57.6519C85.8215 58.0145 85.5635 58.364 85.1603 58.6784C84.757 58.9928 84.2171 59.2653 83.5745 59.4787L56.9777 68.3164H56.9671C56.9554 68.3267 56.9447 68.3267 56.9447 68.3267L56.6243 68.4334L40.0812 73.9344C39.6235 74.0937 39.0759 74.1885 38.5041 74.2075C37.9325 74.2265 37.3611 74.1689 36.8588 74.0415C36.8458 74.0368 36.8309 74.0333 36.8151 74.0312C36.8151 74.0305 36.8148 74.0299 36.8142 74.0292C36.8135 74.0286 36.8126 74.028 36.8116 74.0276C36.8105 74.0271 36.8092 74.0268 36.8078 74.0265C36.8063 74.0263 36.8049 74.0262 36.8034 74.0263H36.7927C36.7867 74.0267 36.7807 74.0264 36.775 74.0256C36.7692 74.0247 36.764 74.0233 36.7597 74.0214V74.016C36.7151 74.0061 36.6714 73.9855 36.6054 73.9654C35.9809 73.7869 35.5201 73.5088 35.3105 73.184C35.101 72.8591 35.1572 72.51 35.4684 72.2029L47.6629 59.601L61.3041 45.4917L61.3701 45.4307C61.3747 45.4236 61.3823 45.4169 61.3924 45.411Z" fill="url(#paint1_linear_59_8)"/>
<g style="mix-blend-mode:multiply" opacity="0.2">
<g style="mix-blend-mode:multiply" opacity="0.2">
<path d="M53.535 41.9626L61.3925 45.4131C61.3826 45.4193 61.3753 45.4262 61.3711 45.4337L47.664 59.604L47.1455 59.0895L44.7289 56.7109L53.535 41.9626Z" fill="black"/>
</g>
</g>
<g style="mix-blend-mode:screen" opacity="0.5">
<g style="mix-blend-mode:screen" opacity="0.5">
<path d="M36.7608 74.0227V74.0176C36.7816 74.0227 36.7929 74.0274 36.8033 74.0274C36.7884 74.0281 36.7734 74.0264 36.7608 74.0227Z" fill="white"/>
</g>
</g>
<g style="mix-blend-mode:screen" opacity="0.5">
<g style="mix-blend-mode:screen" opacity="0.5">
<path d="M61.3924 45.4114C61.3924 45.4114 61.0284 45.8752 60.3662 46.68C59.671 47.4866 58.7448 48.636 57.5302 50.0059C56.3379 51.3763 54.9146 52.9706 53.3476 54.6663C51.7805 56.362 50.0591 58.1656 48.3377 59.9689C47.4542 60.8651 46.5823 61.7613 45.7105 62.6428C44.8609 63.5242 43.9629 64.385 43.1289 65.2252C41.4395 66.8958 39.8278 68.4494 38.4054 69.7741C37.7093 70.4413 37.0462 71.0422 36.452 71.5822C36.1607 71.847 35.8772 72.1016 35.6461 72.3261C35.4405 72.5276 35.3567 72.751 35.4034 72.9727C35.4667 73.2941 35.771 73.5952 36.2636 73.8241C36.305 73.8442 36.3495 73.863 36.3966 73.8801C36.4303 73.8965 36.4671 73.9115 36.5064 73.9249C36.5361 73.9398 36.5686 73.9535 36.6034 73.9657C35.979 73.7873 35.5183 73.5092 35.3087 73.1843C35.099 72.8594 35.1553 72.5103 35.4665 72.2033L47.661 59.6014L61.3021 45.4921L61.3682 45.4311C61.3735 45.4239 61.3818 45.4172 61.3924 45.4114Z" fill="white"/>
</g>
</g>
<g style="mix-blend-mode:multiply" opacity="0.2">
<g style="mix-blend-mode:multiply" opacity="0.2">
<path d="M74.0841 50.9838L84.1815 55.4152C84.3294 55.4793 84.4694 55.5472 84.6009 55.6186C85.1126 55.8974 85.4938 56.222 85.7204 56.5721C85.9471 56.9221 86.0144 57.2901 85.918 57.6527C85.8216 58.0154 85.5636 58.3649 85.1604 58.6793C84.7571 58.9937 84.2172 59.2662 83.5747 59.4796L56.9778 68.3173C57.1215 68.2559 57.772 68.0014 58.8226 67.6003C60.0362 67.1522 61.7469 66.4899 63.844 65.7308C65.9412 64.9717 68.4014 64.0907 71.0724 63.1689C73.721 62.2417 76.6065 61.2792 79.4707 60.3113L81.6455 59.5983L82.7261 59.247L82.9911 59.1551C83.0685 59.1319 83.1424 59.1063 83.2125 59.0785C83.3704 59.0248 83.5178 58.9648 83.6533 58.8993C84.1678 58.6644 84.564 58.3803 84.8138 58.0668C85.0636 57.7534 85.161 57.4185 85.099 57.0857C85.041 56.7604 84.8342 56.4444 84.4921 56.1586C84.3289 56.0218 84.1336 55.8938 83.9096 55.7768L83.7222 55.6746L83.6446 55.6343L83.5339 55.5895L83.1368 55.4013C82.0552 54.9021 81.0513 54.423 80.127 53.9749C78.2726 53.0935 76.7832 52.3294 75.7016 51.8101C74.7832 51.3445 74.2006 51.0496 74.0841 50.9838Z" fill="black"/>
</g>
</g>
<g style="mix-blend-mode:screen" opacity="0.5">
<g style="mix-blend-mode:screen" opacity="0.5">
<path d="M19.5554 27.1402C19.2503 27.0779 18.9188 27.047 18.585 27.0506C18.2511 27.0542 17.923 27.0918 17.6243 27.1604C17.1793 27.2518 16.8134 27.4095 16.5846 27.6081C16.3559 27.8061 16.2776 28.0342 16.3621 28.2556C16.5619 28.5343 16.8324 28.8009 17.168 29.0501C17.4874 29.3405 17.8301 29.6463 18.1826 29.9622C19.6069 31.2358 21.2293 32.728 22.94 34.3327C23.7788 35.1393 24.6876 35.9674 25.5439 36.8184C26.4003 37.6693 27.2993 38.5243 28.1819 39.3851C29.9295 41.1171 31.6577 42.8491 33.2364 44.4842C34.815 46.1194 36.2597 47.647 37.4627 48.9654C38.688 50.2846 39.6258 51.3951 40.321 52.1695C40.9035 52.8367 41.2482 53.2646 41.3366 53.3663L16.2301 28.6212C15.9921 28.3851 15.9368 28.1185 16.0732 27.8653C16.2097 27.6125 16.5298 27.3889 16.9801 27.2316C17.4305 27.0744 17.9839 26.9932 18.5483 27.0018C19.1126 27.0098 19.6538 27.1071 20.0817 27.2769C19.9178 27.2227 19.7413 27.177 19.5554 27.1402Z" fill="white"/>
</g>
</g>
<g style="mix-blend-mode:screen" opacity="0.3">
<g style="mix-blend-mode:screen" opacity="0.3">
<path d="M19.2574 28.3117L23.4847 30.1708C26.5307 31.5103 29.5765 32.8483 32.6218 34.1845L43.0512 52.6541C38.6589 48.3244 34.2665 43.9926 29.8742 39.6587C26.3789 36.2106 22.8769 32.7601 19.3681 29.3074C19.037 28.9763 18.6943 28.6451 18.3632 28.314C17.9438 27.9084 18.8593 28.1392 19.2574 28.3117Z" fill="white"/>
</g>
</g>
<g style="mix-blend-mode:screen" opacity="0.3">
<g style="mix-blend-mode:screen" opacity="0.3">
<path d="M62.1323 47.1378C64.0424 47.9836 65.9589 48.8257 67.882 49.6643C68.4121 49.8987 68.95 50.1326 69.482 50.3669L37.4559 72.7642C37.5554 72.5065 37.7575 72.2596 38.0521 72.036C41.5609 68.4089 45.0704 64.7806 48.5805 61.1508C53.1036 56.4794 57.6209 51.8084 62.1323 47.1378Z" fill="white"/>
</g>
</g>
<defs>
<linearGradient id="paint0_linear_59_8" x1="38.6962" y1="68.4396" x2="38.6962" y2="27.0003" gradientUnits="userSpaceOnUse">
<stop offset="0.177083" stop-color="#41B0EE" stop-opacity="0.82"/>
<stop offset="0.854167" stop-color="#00A1FC"/>
</linearGradient>
<linearGradient id="paint1_linear_59_8" x1="51.4846" y1="48.723" x2="55.5596" y2="71.3813" gradientUnits="userSpaceOnUse">
<stop stop-color="#00DDFB"/>
<stop offset="0.411458" stop-color="#19C4DC"/>
<stop offset="0.697917" stop-color="#0DCFEA"/>
<stop offset="1" stop-color="#009FF8"/>
</linearGradient>
</defs>
</svg>
